<svg width="400" height="400" viewBox="0 0 400 400" fill="none" xmlns="http://www.w3.org/2000/svg">
<g clip-path="url(#clip0_616_2)">
<rect width="400" height="400" rx="42" fill="#1D1626"/>
<g filter="url(#filter0_dddddd_616_2)">
<path d="M131.123 129.413C108.383 132.594 88.7246 146.488 79.2673 166.109C73.4228 178.199 71.4039 188.699 72.1477 202.592C73.2103 223.273 79.2673 236.955 94.0377 251.485C108.277 265.59 119.966 270.575 138.88 270.575C157.157 270.575 170.334 265.59 182.129 254.242C188.505 248.197 199.343 232.606 199.343 229.531C199.343 226.455 201.15 228.682 204.869 236.531C216.026 259.651 234.197 271.105 259.913 270.999C279.146 270.893 293.598 264.848 307.305 251.06C316.657 241.727 323.139 230.485 326.326 218.077C328.558 209.592 328.558 191.456 326.326 182.017C321.013 158.791 303.586 139.17 281.696 131.958C274.258 129.519 271.495 129.094 259.381 129.094C247.267 129.094 244.505 129.519 236.96 131.958C223.252 136.519 210.607 145.533 203.381 155.821L200.193 160.487L198.387 157.412C197.324 155.821 193.074 151.26 188.93 147.442C180.747 139.912 169.696 133.655 159.814 131.216C151.95 129.201 138.774 128.458 131.123 129.413ZM153.226 158.685C160.983 161.018 168.209 166.215 173.522 173.426C178.516 180.108 184.467 191.032 184.467 193.365C184.467 194.108 181.066 201.532 176.922 209.91C164.808 234.409 155.67 241.833 138.774 240.667C116.778 239.076 101.157 215.319 105.726 190.502C110.189 166.215 131.229 152.109 153.226 158.685ZM272.983 160.594C287.541 167.169 296.042 181.487 296.148 199.092C296.254 219.349 285.097 235.258 267.882 239.924C262.038 241.515 250.774 240.561 244.93 238.015C234.729 233.455 228.565 225.925 219.958 207.047L214.326 194.956L219.108 185.623C226.971 170.457 234.622 163.139 247.161 159.003C254.918 156.457 265.332 157.094 272.983 160.594Z" fill="white"/>
</g>
</g>
<defs>
<filter id="filter0_dddddd_616_2" x="-134.438" y="-77.4384" width="668.877" height="554.877" filterUnits="userSpaceOnUse" color-interpolation-filters="sRGB">
<feFlood flood-opacity="0" result="BackgroundImageFix"/>
<feColorMatrix in="SourceAlpha" type="matrix" values="0 0 0 0 0 0 0 0 0 0 0 0 0 0 0 0 0 0 127 0" result="hardAlpha"/>
<feOffset/>
<feGaussianBlur stdDeviation="2.4576"/>
<feColorMatrix type="matrix" values="0 0 0 0 0.258824 0 0 0 0 0.196078 0 0 0 0 0.341176 0 0 0 1 0"/>
<feBlend mode="normal" in2="BackgroundImageFix" result="effect1_dropShadow_616_2"/>
<feColorMatrix in="SourceAlpha" type="matrix" values="0 0 0 0 0 0 0 0 0 0 0 0 0 0 0 0 0 0 127 0" result="hardAlpha"/>
<feOffset/>
<feGaussianBlur stdDeviation="4.9152"/>
<feColorMatrix type="matrix" values="0 0 0 0 0.258824 0 0 0 0 0.196078 0 0 0 0 0.341176 0 0 0 1 0"/>
<feBlend mode="normal" in2="effect1_dropShadow_616_2" result="effect2_dropShadow_616_2"/>
<feColorMatrix in="SourceAlpha" type="matrix" values="0 0 0 0 0 0 0 0 0 0 0 0 0 0 0 0 0 0 127 0" result="hardAlpha"/>
<feOffset/>
<feGaussianBlur stdDeviation="17.2032"/>
<feColorMatrix type="matrix" values="0 0 0 0 0.258824 0 0 0 0 0.196078 0 0 0 0 0.341176 0 0 0 1 0"/>
<feBlend mode="normal" in2="effect2_dropShadow_616_2" result="effect3_dropShadow_616_2"/>
<feColorMatrix in="SourceAlpha" type="matrix" values="0 0 0 0 0 0 0 0 0 0 0 0 0 0 0 0 0 0 127 0" result="hardAlpha"/>
<feOffset/>
<feGaussianBlur stdDeviation="34.4064"/>
<feColorMatrix type="matrix" values="0 0 0 0 0.258824 0 0 0 0 0.196078 0 0 0 0 0.341176 0 0 0 1 0"/>
<feBlend mode="normal" in2="effect3_dropShadow_616_2" result="effect4_dropShadow_616_2"/>
<feColorMatrix in="SourceAlpha" type="matrix" values="0 0 0 0 0 0 0 0 0 0 0 0 0 0 0 0 0 0 127 0" result="hardAlpha"/>
<feOffset/>
<feGaussianBlur stdDeviation="58.9824"/>
<feColorMatrix type="matrix" values="0 0 0 0 0.258824 0 0 0 0 0.196078 0 0 0 0 0.341176 0 0 0 1 0"/>
<feBlend mode="normal" in2="effect4_dropShadow_616_2" result="effect5_dropShadow_616_2"/>
<feColorMatrix in="SourceAlpha" type="matrix" values="0 0 0 0 0 0 0 0 0 0 0 0 0 0 0 0 0 0 127 0" result="hardAlpha"/>
<feOffset/>
<feGaussianBlur stdDeviation="103.219"/>
<feColorMatrix type="matrix" values="0 0 0 0 0.258824 0 0 0 0 0.196078 0 0 0 0 0.341176 0 0 0 1 0"/>
<feBlend mode="normal" in2="effect5_dropShadow_616_2" result="effect6_dropShadow_616_2"/>
<feBlend mode="normal" in="SourceGraphic" in2="effect6_dropShadow_616_2" result="shape"/>
</filter>
<clipPath id="clip0_616_2">
<rect width="400" height="400" rx="42" fill="white"/>
</clipPath>
</defs>
</svg>
