<svg width="259" height="60" viewBox="0 0 259 60" fill="none" xmlns="http://www.w3.org/2000/svg">
<path d="M50.1491 0.428868C47.9928 1.37631 46.5227 4.15328 46.8167 6.70157C47.2414 10.6873 51.5539 13.1376 55.2783 11.4714C57.9573 10.2953 59.2641 7.58367 58.676 4.38198C58.4147 2.97715 56.7485 1.01693 55.311 0.428868C53.9715 -0.159198 51.4232 -0.126527 50.1491 0.428868Z" fill="white"/>
<path d="M0 29.5381V58.7781H5.22725H10.4545V55.8051V52.7994L11.5653 54.2696C14.865 58.582 22.1178 60.967 27.8678 59.6275C31.4288 58.7781 33.8138 57.3732 36.7541 54.4002C41.2953 49.8264 42.8961 45.5139 42.8961 38.1958C42.8961 32.8378 42.3734 30.4202 40.3152 26.1731C36.1007 17.4828 26.7243 13.4643 17.7727 16.5027C15.5511 17.2541 14.1136 18.2342 12.2514 20.2924L10.6179 22.0566L10.7159 11.1774L10.8139 0.298198H5.42327H0V29.5381ZM25.6135 25.2583C28.9786 26.8918 31.3635 30.6163 32.0496 35.3208C32.9644 41.5935 30.4487 47.3435 25.6462 49.8917C24.2087 50.6758 23.6533 50.7738 20.909 50.7738C18.0667 50.7738 17.642 50.6758 16.0411 49.7937C11.5326 47.2781 9.2457 41.7242 10.1278 35.4188C10.7812 30.7143 13.0681 26.9572 16.3025 25.291C19.0141 23.9188 22.8039 23.8862 25.6135 25.2583Z" fill="white"/>
<path d="M133.622 29.538V58.7779H138.685H143.717L143.815 55.8049L143.913 52.8646L145.089 54.4654C146.461 56.295 148.944 58.0265 151.754 59.1373C154.563 60.2154 159.627 60.2481 162.764 59.17C167.599 57.5038 171.486 53.91 173.937 48.8788C175.93 44.8277 176.55 41.5933 176.322 36.5948C175.734 24.1474 168.219 15.6531 157.798 15.6531C153.191 15.6531 148.323 17.6133 145.546 20.5863L144.076 22.1545V11.2426V0.298045H138.849H133.622V29.538ZM157.242 24.6374C162.927 26.1076 165.933 31.2368 165.573 38.8817C165.344 44.2396 163.09 47.8987 158.81 49.9243C156.36 51.0677 152.538 51.1331 150.218 50.0549C145.906 48.0947 143.423 43.5862 143.423 37.7709C143.455 31.1062 146.722 26.0749 152.015 24.6374C154.237 24.0494 154.988 24.0494 157.242 24.6374Z" fill="white"/>
<path d="M83.7665 15.7837C80.3361 16.5678 77.4285 18.4627 75.4029 21.305C75.0435 21.7624 75.0109 21.403 75.1089 19.0834L75.2069 16.3064H69.7836H64.3604V37.5421V58.7778H69.5549H74.7822L74.8802 45.1216L74.9782 31.4981L75.893 29.5379C77.5918 25.9115 79.6174 24.376 82.8191 24.376C85.8574 24.376 88.4057 25.9768 89.9412 28.8845C90.6273 30.1586 90.66 30.5507 90.758 44.4682L90.856 58.7778H95.8872H100.951V46.7552C100.951 34.1444 101.18 31.3021 102.291 28.6885C104.578 23.3632 110.883 22.6445 114.934 27.251C117.058 29.6686 117.123 30.2893 117.123 45.4483V58.7778H122.285H127.414V44.3049C127.414 26.8589 127.12 24.572 124.474 20.7169C120.847 15.457 112.32 13.8561 105.329 17.1558C103.532 18.0053 100.526 20.5862 99.677 22.0237C99.3829 22.4811 99.2196 22.5464 99.0889 22.2524C98.6969 21.2723 96.7693 19.018 95.4952 18.0706C92.5548 15.849 87.7196 14.9016 83.7665 15.7837Z" fill="white"/>
<path d="M197.59 15.9474C190.599 16.9275 184.555 21.2073 181.647 27.2513C179.85 30.9757 179.229 34.2101 179.458 38.4899C179.785 44.8606 181.647 49.0751 186.188 53.5509C190.566 57.8961 194.16 59.4316 199.975 59.4316C205.594 59.4316 209.645 57.8961 213.272 54.4004C215.232 52.5382 218.564 47.7356 218.564 46.7882C218.564 45.8407 219.12 46.5268 220.263 48.9444C223.694 56.0666 229.28 59.5949 237.186 59.5623C243.1 59.5296 247.543 57.6674 251.757 53.4203C254.632 50.5453 256.625 47.0822 257.605 43.2598C258.291 40.6462 258.291 35.0595 257.605 32.1519C255.972 24.9971 250.614 18.9531 243.884 16.7315C241.597 15.9801 240.748 15.8494 237.023 15.8494C233.299 15.8494 232.449 15.9801 230.13 16.7315C225.915 18.1363 222.027 20.9133 219.806 24.0823L218.826 25.5198L218.27 24.5724C217.944 24.0823 216.637 22.6775 215.363 21.5014C212.847 19.1818 209.449 17.2542 206.411 16.5028C203.993 15.8821 199.942 15.6534 197.59 15.9474ZM204.385 24.9644C206.77 25.6832 208.992 27.284 210.625 29.5056C212.161 31.5638 213.991 34.9289 213.991 35.6476C213.991 35.8763 212.945 38.1632 211.671 40.7442C207.947 48.291 205.137 50.5779 199.942 50.2186C193.18 49.7285 188.377 42.4104 189.782 34.7655C191.154 27.284 197.623 22.9388 204.385 24.9644ZM241.205 25.5525C245.681 27.578 248.294 31.9885 248.327 37.4118C248.36 43.6518 244.929 48.5524 239.637 49.9899C237.84 50.4799 234.377 50.1859 232.58 49.4018C229.444 47.997 227.549 45.6774 224.902 39.8621L223.171 36.1377L224.641 33.2627C227.059 28.5908 229.411 26.3366 233.266 25.0624C235.651 24.2783 238.853 24.4744 241.205 25.5525Z" fill="white"/>
<path d="M47.6987 37.5421V58.7778H52.926H58.1532V37.5421V16.3064H52.926H47.6987V37.5421Z" fill="white"/>
</svg>
