<svg width="570" height="161" viewBox="0 0 570 161" fill="none" xmlns="http://www.w3.org/2000/svg">
<path d="M350.8 3.30052C341.6 5.20052 333.4 6.90052 332.5 7.20052C331.2 7.80052 331 14.9005 331 67.8005C331 121.501 331.2 127.701 332.6 128.301C334.9 129.201 370.3 129.001 371.8 128.101C372.8 127.401 373 113.901 372.8 63.8005L372.5 0.400523L370 0.200523C368.6 0.100523 360 1.50052 350.8 3.30052Z" fill="white"/>
<path d="M416 18.0004C404.4 20.1004 399.1 21.5004 398.3 22.6004C397.5 23.6004 397 27.5004 397 32.5004V40.7004L391.5 41.1004C388.5 41.4004 385.7 41.9004 385.3 42.3004C383.9 43.6004 383.7 63.5004 385 65.9004C386.1 68.0004 386.7 68.1004 392.1 67.5004L398 66.8004V86.7004C398 109.3 398.9 114.1 404.4 120.5C406.5 123 410.3 125.7 414.2 127.5C420.3 130.3 421.1 130.4 435.2 130.4C448.5 130.4 450.1 130.2 452.7 128.3L455.5 126.2V113.3V100.4L448.7 99.9004C438.3 99.1004 438 98.5004 438 79.3004V64.0004L441.3 63.5004C443 63.2004 447.2 62.7004 450.5 62.4004C453.7 62.1004 456.8 61.3004 457.2 60.6004C457.6 59.9004 458 54.6004 458 48.8004C458 41.0004 457.6 37.8004 456.6 37.0004C455.7 36.2004 452.5 36.1004 446.6 36.5004L438 37.2004V28.0004C438 18.2004 437 14.8004 434.2 15.0004C433.3 15.0004 425.1 16.4004 416 18.0004Z" fill="white"/>
<path d="M35.6 31.5001C21.5 34.6001 11.8 41.4001 6.8 51.6001C4 57.4001 3.5 59.3001 3.5 65.9001C3.5 71.7001 4.1 74.5001 5.9 78.1001C10.2 87.2001 20.2 93.9001 33.5 96.9001C39.8 98.3001 45.8 100.8 46.3 102.3C48.7 108.4 32.2 107.3 22.7 100.7C21.2 99.6001 19.6 98.9001 19.1 99.1001C16.8 100 0 120.6 0 122.6C0 125.7 4.2 128.4 14.6 131.8C30.2 137 43.4 138.2 56.5 135.4C70.4 132.4 79.2 126.4 84.2 116.2C87 110.4 87.5 108.5 87.4 101.9C87.4 84.8001 78.3 75.9001 55.1 70.1001C45.9 67.8001 44.5 67.1001 44.2 65.2001C43.9 63.5001 44.5 62.8001 46.5 62.3001C50.7 61.3001 59.3 62.5001 63.8 64.8001C66.1 66.0001 68.1 66.9001 68.3 66.9001C68.5 66.9001 72.6 62.2001 77.4 56.5001C88.6 42.9001 88.8 41.5001 79.3 37.1001C66 31.0001 48.1 28.7001 35.6 31.5001Z" fill="white"/>
<path d="M252.7 33.5004C240.1 36.5004 227.2 45.6004 221.3 55.6004C214.9 66.6004 212.9 85.0004 216.9 97.8004C223.4 118.8 243 131.9 267.7 131.9C297.4 131.9 318.5 113.5 320.7 85.8004C322.2 66.0004 312.6 47.4004 296.3 38.6004C284.8 32.4004 266.1 30.2004 252.7 33.5004ZM274.8 68.9004C280.1 72.1004 282.2 76.4004 281.7 83.1004C281.3 89.3004 279.2 92.7004 273.8 95.5004C268 98.5004 259.9 96.4004 255.9 90.8004C252.7 86.3004 252.5 77.4004 255.6 73.2004C260 67.2004 268.7 65.2004 274.8 68.9004Z" fill="white"/>
<path d="M504.5 32.9004C479.4 38.3004 463.9 57.1004 464.1 81.9004C464.3 111.7 485.7 131.9 517 131.9C542.8 131.9 562.7 117.9 568.6 95.5004C570.6 87.9004 570.4 73.3004 568.1 66.0004C563.5 51.1004 552.8 40.6004 536 34.7004C529.8 32.5004 511.3 31.4004 504.5 32.9004ZM524 68.7004C528 70.8004 532 77.7004 532 82.4004C532 86.7004 528.1 92.9004 524 95.0004C514.3 100.2 502.9 93.2004 502.7 82.0004C502.5 70.8004 514.1 63.6004 524 68.7004Z" fill="white"/>
<path d="M153.5 34.6003C150.7 35.6003 147 37.4003 145.3 38.7003C141.1 41.7003 138 41.6003 138 38.5003C138 37.2003 137.3 35.8003 136.4 35.5003C135.5 35.2003 127.2 34.9003 118 34.9003C102.3 34.9003 101 35.0003 100 36.8003C99.4 38.1003 99 59.5003 99 99.3003C99 155.9 99.1 159.9 100.8 160.8C103.2 162.1 138.9 156.7 140.1 154.8C140.6 154 141 146.8 141 138.6C141 130.5 141.4 123.9 141.9 123.9C142.3 123.9 145.6 125.4 149 127.1C154.9 130.2 156 130.4 165.4 130.4C174.8 130.4 176 130.2 182.2 127.1C197.8 119.4 207 102.5 207 81.6003C207 60.6003 197.3 43.5003 181.3 36.1003C173.6 32.7003 161 32.0003 153.5 34.6003ZM164.6 71.1003C174.5 82.0003 166.3 98.5003 151.9 96.6003C138.1 94.8003 134.3 76.3003 146.2 68.8003C148.8 67.2003 150.7 66.9003 155.4 67.2003C160.7 67.5003 161.6 67.9003 164.6 71.1003Z" fill="white"/>
</svg>
