<svg width="1003" height="170" viewBox="0 0 1003 170" fill="none" xmlns="http://www.w3.org/2000/svg">
<path fill-rule="evenodd" clip-rule="evenodd" d="M199.935 8.04216C200.809 7.67489 204.822 5.71354 208.854 3.68319C215.508 0.332175 217.548 -0.475405 217.548 0.240359C217.548 0.377507 217.948 0.992795 218.437 1.60779C219.173 2.53433 223.9 11.7564 223.9 12.2666C223.9 12.5983 229.448 24.2189 230.722 26.5547C231.112 27.2693 232.024 29.0883 232.749 30.597C235.987 37.3307 241.063 47.7002 242.218 49.9419C242.915 51.2918 244.164 53.6954 244.996 55.2835C246.612 58.3691 248.743 62.6473 251.109 67.5545C254.349 74.2745 257.236 80.1224 257.383 80.2587C257.938 80.7775 259.421 84.3284 259.418 85.131C259.414 86.0766 259.386 86.0997 258.475 85.9141C257.959 85.809 251.602 85.7301 244.348 85.7394L231.159 85.7558L230.705 85.1085C230.456 84.7525 230.248 84.2628 230.243 84.02C230.238 83.7775 229.848 82.8027 229.377 81.8539C228.905 80.9052 228.52 79.9734 228.52 79.7831C228.52 79.1687 225.92 70.9001 225.474 70.0985C225.237 69.6715 224.777 68.0474 224.451 66.4894C223.918 63.9364 221.839 57.1718 219.942 51.8187C219.548 50.7071 219.04 49.083 218.813 48.2096C218.587 47.3361 218.03 45.6471 217.577 44.456C217.123 43.265 216.202 40.4716 215.531 38.2483C214.456 34.6917 212.948 29.9404 210.763 23.2343C210.401 22.1227 209.559 19.2643 208.891 16.8822C208.06 13.9173 207.467 12.3353 207.013 11.8664L206.348 11.1818L203.791 12.3471C200.054 14.0504 196.008 15.734 192.951 16.8577C191.472 17.4014 188.833 18.4304 187.087 19.145C185.34 19.8596 182.092 21.1136 179.868 21.9316C177.645 22.7498 175.566 23.5837 175.249 23.7846C173.821 24.6881 172.95 24.4949 172.767 23.2343C172.597 22.0554 173.074 21.4901 174.917 20.6871C175.927 20.2474 177.779 19.2966 179.033 18.5745C181.71 17.0321 197.629 9.01143 199.935 8.04216ZM172.738 39.0322C172.662 30.7428 172.71 29.3823 173.083 29.1351C173.552 28.8253 175.072 29.0052 175.486 29.4198C175.627 29.5604 175.761 34.0453 175.784 39.3859C175.818 47.3053 175.868 49.1183 175.132 49.5299C174.875 49.6737 174.523 49.6466 174.041 49.6489C173.412 49.6518 173.075 49.4935 172.974 49.1479C172.893 48.8702 172.786 44.318 172.738 39.0322ZM105.087 67.8199L104.991 49.4788L104.894 31.1375L110.072 31.2281C113.929 31.2957 115.372 31.4198 115.727 31.7149C116.16 32.0753 116.203 33.7017 116.203 49.6532C116.203 64.7195 116.263 67.2447 116.627 67.5467C116.938 67.8052 119.571 67.91 126.574 67.9429C133.952 67.9775 136.181 68.0722 136.472 68.3627C136.765 68.6558 136.879 71.7183 136.992 82.3413L137.136 95.9446L140.89 95.8941C145.444 95.8326 149.314 96.2105 149.874 96.7709C150.1 96.9967 150.366 98.0552 150.466 99.1235C150.566 100.192 150.733 101.119 150.838 101.184C151.269 101.45 223.374 101.4 223.641 101.133C223.794 100.98 224.012 99.8266 224.126 98.5694L224.333 96.2833L226.643 96.0474C227.913 95.9174 235.189 95.8958 242.812 95.9992C250.434 96.1025 257.061 96.1773 257.537 96.1652C258.998 96.1276 259.2 96.4311 258.686 97.8918C258.438 98.5951 257.736 100.015 257.125 101.047C256.515 102.08 255.691 103.574 255.295 104.368C254.021 106.924 251.138 112.198 250.544 113.059C250.01 113.835 247.58 118.179 245.393 122.269C244.884 123.222 243.909 124.976 243.227 126.167C242.545 127.358 240.995 130.281 239.784 132.663C238.572 135.045 237.245 137.579 236.835 138.294C236.424 139.008 235.446 140.762 234.661 142.191C232.409 146.288 230.262 149.935 229.73 150.567C228.863 151.596 226.393 153.228 224.91 153.751C222.384 154.643 217.101 154.653 211.417 153.777C201.378 152.229 191.021 149.067 169.763 141.06C167.381 140.163 164.652 139.227 163.699 138.979C162.747 138.732 160.213 137.975 158.069 137.297C152.702 135.601 151.657 135.317 146.376 134.117C143.835 133.54 140.976 132.887 140.024 132.667C139.071 132.446 134.848 131.982 130.64 131.636C117.88 130.587 109.356 131.209 98.3573 133.991C90.686 135.932 88.5529 136.626 84.2984 138.567C83.6632 138.857 82.1691 139.51 80.978 140.018C79.787 140.526 77.8675 141.386 76.7126 141.929L74.6124 142.915L74.371 142.265C74.2379 141.907 74.0346 141.094 73.9186 140.459C73.8028 139.824 73.6102 139.174 73.4904 139.015C73.3706 138.857 72.5194 136.258 71.5986 133.241C69.941 127.809 66.0726 115.637 62.1929 103.646C61.0879 100.232 60.1854 97.1639 60.1868 96.8287C60.1894 96.24 60.3621 96.2117 65.17 96.0081C67.9095 95.8923 75.1281 95.8369 81.2119 95.8851C90.669 95.9599 92.3119 95.9114 92.5403 95.5505C92.9529 94.8982 92.8729 91.4184 92.4314 90.8147C92.0688 90.319 91.4801 90.2964 82.1933 90.4229C76.7738 90.4968 72.172 90.4532 71.967 90.3256C71.6772 90.1454 71.5856 88.1211 71.5553 81.2063C71.5339 76.3181 71.577 71.3441 71.6509 70.1531L71.7851 67.9876H74.4325H77.0802L77.2627 64.0898C77.3628 61.9459 77.4604 59.8821 77.4792 59.5033C77.5133 58.8161 77.5199 58.8149 80.0968 59.0038L82.6801 59.1932L82.7676 52.57C82.8155 48.927 82.9449 45.8567 83.0552 45.747C83.1655 45.637 84.4298 45.6401 85.8648 45.7536L88.4744 45.9601L88.5517 52.4987L88.6294 59.037L91.3002 59.1201C92.769 59.1657 93.9912 59.2307 94.0157 59.2645C94.0402 59.298 94.1378 61.2746 94.2322 63.6567L94.404 67.9876L98.3019 68.0763C100.446 68.1251 102.849 68.0872 103.643 67.9925L105.087 67.8199ZM158.647 70.1531V61.6355V53.118L173.733 53.1223C182.094 53.1249 189.001 53.2418 189.227 53.3851C189.568 53.601 189.604 54.7655 189.446 60.5369C189.343 64.3285 189.174 68.0431 189.071 68.7917L188.885 70.1531H173.766H158.647ZM104.055 76.9114C104.417 76.5494 104.394 72.8756 104.027 72.3922C103.674 71.9285 102.652 71.8823 91.2722 71.8148C84.4682 71.7743 78.754 71.8321 78.5744 71.9432C78.1569 72.2017 77.9288 76.4587 78.3122 76.8421C78.6064 77.1364 103.763 77.2042 104.055 76.9114ZM120.178 81.6238C120.533 81.1777 120.914 73.3069 120.604 72.8389C120.342 72.4448 111.622 72.1641 111.389 72.5427C111.194 72.8603 111.021 81.1162 111.2 81.5825C111.404 82.1149 119.757 82.1533 120.178 81.6238ZM132.805 81.8467V77.227V72.6073L130.027 72.525C127.344 72.4456 127.241 72.4658 127.071 73.1025C126.838 73.9733 126.836 79.9353 127.069 81.0989L127.251 82.011L130.028 81.929L132.805 81.8467ZM120.251 95.6714C120.533 95.3891 120.746 86.9939 120.476 86.7549C120.429 86.713 118.354 86.6113 115.866 86.5296C111.416 86.3833 111.34 86.3908 111.205 87.0011C111.036 87.7645 111.204 95.4699 111.396 95.7812C111.621 96.145 119.88 96.0428 120.251 95.6714ZM132.733 95.8629C132.852 95.8559 132.95 93.7713 132.95 91.2305V86.6108H130.093C127.755 86.6108 127.205 86.6936 127.062 87.0675C126.835 87.6586 126.834 93.0815 127.061 94.7357L127.236 96.0116L129.876 95.9434C131.328 95.9059 132.614 95.8698 132.733 95.8629Z" fill="white"/>
<path d="M109.129 140.33C106.588 140.626 103.535 141.128 102.344 141.445C101.153 141.762 98.4896 142.437 96.4251 142.944C93.105 143.761 87.7661 145.495 82.9992 147.304C81.1091 148.022 73.4078 151.964 70.1506 153.882C68.8802 154.629 67.0612 155.676 66.1084 156.206C63.8849 157.443 59.5288 160.312 58.6999 161.084C58.3476 161.412 57.9691 161.681 57.8588 161.681C57.7485 161.681 57.5934 161.928 57.5143 162.231C57.374 162.768 57.4063 162.769 58.852 162.271C59.6671 161.99 61.6801 161.084 63.3256 160.258C66.2415 158.794 67.1513 158.425 74.0485 155.906C75.8747 155.239 77.8237 154.523 78.3795 154.315C78.9353 154.107 80.7543 153.517 82.4217 153.004C84.0891 152.491 86.1792 151.835 87.0668 151.547C90.5013 150.432 99.6913 148.53 104.364 147.967C108.582 147.459 122.443 147.37 126.825 147.822C134.098 148.573 144.79 150.981 154.604 154.081C162.017 156.421 162.244 156.497 169.474 159.04C173.127 160.326 177.544 161.782 179.291 162.278C181.038 162.774 183.896 163.683 185.643 164.298C193.207 166.963 196.87 167.833 206.432 169.239C211.512 169.986 219.411 170.225 223.864 169.767C227.954 169.346 235.729 167.755 238.481 166.776C239.592 166.381 241.281 165.779 242.234 165.438C246.568 163.888 255.988 158.656 262.157 154.372C264.396 152.817 268.058 149.444 268.319 148.695C268.879 147.088 268.068 147.137 265.384 148.873C258.634 153.239 255.65 154.724 247.865 157.592C241.378 159.981 239.385 160.544 232.706 161.871C229.085 162.591 228.062 162.674 222.889 162.668C210.657 162.654 201.519 160.775 184.488 154.773C178.596 152.696 171.224 150.068 168.464 149.06C162.769 146.98 150.619 143.361 145.943 142.352C145.228 142.198 143.409 141.805 141.9 141.48C136.821 140.384 131.289 139.927 122.267 139.857C115.475 139.805 112.813 139.901 109.129 140.33Z" fill="white"/>
<path d="M328.06 37.1797V46.3555H312.556V89H301.658V46.3555H286.083V37.1797H328.06ZM366.804 66.5V89H356.573V65.6914C356.573 63.6289 356.221 61.9648 355.518 60.6992C354.604 58.918 352.87 58.0273 350.315 58.0273C347.667 58.0273 345.651 58.918 344.268 60.6992C342.909 62.457 342.229 64.9766 342.229 68.2578V89H332.245V37.3555H342.229V55.6719C343.682 53.4453 345.358 51.8984 347.257 51.0312C349.179 50.1406 351.194 49.6953 353.304 49.6953C355.671 49.6953 357.815 50.1055 359.737 50.9258C361.682 51.7461 363.276 53 364.518 54.6875C365.573 56.1172 366.218 57.5938 366.452 59.1172C366.686 60.6172 366.804 63.0781 366.804 66.5ZM376.192 54.8281C378.84 51.4531 383.387 49.7656 389.832 49.7656C394.028 49.7656 397.754 50.5977 401.012 52.2617C404.27 53.9258 405.899 57.0664 405.899 61.6836V79.2617C405.899 80.4805 405.922 81.957 405.969 83.6914C406.039 85.0039 406.239 85.8945 406.567 86.3633C406.895 86.832 407.387 87.2188 408.043 87.5234V89H397.145C396.84 88.2266 396.629 87.5 396.512 86.8203C396.395 86.1406 396.301 85.3672 396.231 84.5C394.848 86 393.254 87.2773 391.449 88.332C389.293 89.5742 386.856 90.1953 384.137 90.1953C380.668 90.1953 377.797 89.2109 375.524 87.2422C373.274 85.25 372.149 82.4375 372.149 78.8047C372.149 74.0938 373.965 70.6836 377.598 68.5742C379.59 67.4258 382.52 66.6055 386.387 66.1133L389.797 65.6914C391.649 65.457 392.973 65.1641 393.77 64.8125C395.199 64.2031 395.914 63.2539 395.914 61.9648C395.914 60.3945 395.364 59.3164 394.262 58.7305C393.184 58.1211 391.59 57.8164 389.481 57.8164C387.114 57.8164 385.438 58.4023 384.453 59.5742C383.75 60.4414 383.281 61.6133 383.047 63.0898H373.379C373.59 59.7383 374.528 56.9844 376.192 54.8281ZM383.645 81.7578C384.582 82.5312 385.731 82.918 387.09 82.918C389.246 82.918 391.227 82.2852 393.031 81.0195C394.86 79.7539 395.809 77.4453 395.879 74.0938V70.3672C395.246 70.7656 394.602 71.0938 393.946 71.3516C393.313 71.5859 392.434 71.8086 391.309 72.0195L389.059 72.4414C386.949 72.8164 385.438 73.2734 384.524 73.8125C382.977 74.7266 382.203 76.1445 382.203 78.0664C382.203 79.7773 382.684 81.0078 383.645 81.7578ZM448.263 37.25V89H438.525V83.6914C437.095 85.9648 435.466 87.6172 433.638 88.6484C431.81 89.6797 429.537 90.1953 426.818 90.1953C422.341 90.1953 418.568 88.3906 415.498 84.7812C412.451 81.1484 410.927 76.4961 410.927 70.8242C410.927 64.2852 412.427 59.1406 415.427 55.3906C418.451 51.6406 422.482 49.7656 427.521 49.7656C429.841 49.7656 431.904 50.2812 433.709 51.3125C435.513 52.3203 436.978 53.7266 438.103 55.5312V37.25H448.263ZM421.263 70.0859C421.263 73.625 421.966 76.4492 423.373 78.5586C424.756 80.6914 426.865 81.7578 429.701 81.7578C432.537 81.7578 434.693 80.7031 436.17 78.5938C437.646 76.4844 438.384 73.7539 438.384 70.4023C438.384 65.7148 437.201 62.3633 434.834 60.3477C433.381 59.1289 431.693 58.5195 429.771 58.5195C426.841 58.5195 424.685 59.6328 423.302 61.8594C421.943 64.0625 421.263 66.8047 421.263 70.0859ZM457.405 54.8281C460.054 51.4531 464.601 49.7656 471.046 49.7656C475.241 49.7656 478.968 50.5977 482.226 52.2617C485.484 53.9258 487.112 57.0664 487.112 61.6836V79.2617C487.112 80.4805 487.136 81.957 487.183 83.6914C487.253 85.0039 487.452 85.8945 487.78 86.3633C488.109 86.832 488.601 87.2188 489.257 87.5234V89H478.359C478.054 88.2266 477.843 87.5 477.726 86.8203C477.609 86.1406 477.515 85.3672 477.444 84.5C476.062 86 474.468 87.2773 472.663 88.332C470.507 89.5742 468.069 90.1953 465.351 90.1953C461.882 90.1953 459.011 89.2109 456.737 87.2422C454.487 85.25 453.362 82.4375 453.362 78.8047C453.362 74.0938 455.179 70.6836 458.812 68.5742C460.804 67.4258 463.734 66.6055 467.601 66.1133L471.011 65.6914C472.862 65.457 474.187 65.1641 474.984 64.8125C476.413 64.2031 477.128 63.2539 477.128 61.9648C477.128 60.3945 476.577 59.3164 475.476 58.7305C474.398 58.1211 472.804 57.8164 470.694 57.8164C468.327 57.8164 466.651 58.4023 465.667 59.5742C464.964 60.4414 464.495 61.6133 464.261 63.0898H454.593C454.804 59.7383 455.741 56.9844 457.405 54.8281ZM464.859 81.7578C465.796 82.5312 466.944 82.918 468.304 82.918C470.46 82.918 472.441 82.2852 474.245 81.0195C476.073 79.7539 477.023 77.4453 477.093 74.0938V70.3672C476.46 70.7656 475.816 71.0938 475.159 71.3516C474.526 71.5859 473.648 71.8086 472.523 72.0195L470.273 72.4414C468.163 72.8164 466.651 73.2734 465.737 73.8125C464.191 74.7266 463.417 76.1445 463.417 78.0664C463.417 79.7773 463.898 81.0078 464.859 81.7578ZM512.637 58.0977C509.239 58.0977 506.907 59.5391 505.641 62.4219C504.985 63.9453 504.657 65.8906 504.657 68.2578V89H494.672V50.75H504.34V56.3398C505.629 54.3711 506.848 52.9531 507.997 52.0859C510.059 50.5391 512.672 49.7656 515.836 49.7656C519.797 49.7656 523.032 50.8086 525.54 52.8945C528.071 54.957 529.336 58.3906 529.336 63.1953V89H519.071V65.6914C519.071 63.6758 518.801 62.1289 518.262 61.0508C517.278 59.082 515.403 58.0977 512.637 58.0977ZM547.479 50.6797V89H537.318V50.6797H547.479ZM547.479 36.8633V46.1094H537.318V36.8633H547.479ZM574.341 37.1797H585.099V89H574.341V37.1797ZM611.01 58.0977C607.612 58.0977 605.28 59.5391 604.014 62.4219C603.358 63.9453 603.03 65.8906 603.03 68.2578V89H593.045V50.75H602.713V56.3398C604.002 54.3711 605.221 52.9531 606.369 52.0859C608.432 50.5391 611.045 49.7656 614.209 49.7656C618.17 49.7656 621.405 50.8086 623.912 52.8945C626.444 54.957 627.709 58.3906 627.709 63.1953V89H617.444V65.6914C617.444 63.6758 617.174 62.1289 616.635 61.0508C615.651 59.082 613.776 58.0977 611.01 58.0977ZM653.094 81.8633V89.3516L648.347 89.5273C643.613 89.6914 640.379 88.8711 638.644 87.0664C637.519 85.918 636.957 84.1484 636.957 81.7578V58.168H631.613V51.0312H636.957V40.3438H646.871V51.0312H653.094V58.168H646.871V78.418C646.871 79.9883 647.07 80.9727 647.469 81.3711C647.867 81.7461 649.086 81.9336 651.125 81.9336C651.429 81.9336 651.746 81.9336 652.074 81.9336C652.426 81.9102 652.765 81.8867 653.094 81.8633ZM658.298 37.1797H668.318V89H658.298V37.1797ZM676.51 78.5234H687.163V89H676.51V78.5234Z" fill="white"/>
<path d="M737.795 37.1797V46.3555H722.291V89H711.392V46.3555H695.818V37.1797H737.795ZM757.237 59.9258C753.206 59.9258 750.499 61.2383 749.116 63.8633C748.343 65.3398 747.956 67.6133 747.956 70.6836V89H737.866V50.6797H747.429V57.3594C748.976 54.8047 750.323 53.0586 751.472 52.1211C753.347 50.5508 755.784 49.7656 758.784 49.7656C758.972 49.7656 759.124 49.7773 759.241 49.8008C759.382 49.8008 759.675 49.8125 760.12 49.8359V60.1016C759.487 60.0312 758.925 59.9844 758.433 59.9609C757.941 59.9375 757.542 59.9258 757.237 59.9258ZM766.028 54.8281C768.676 51.4531 773.223 49.7656 779.669 49.7656C783.864 49.7656 787.59 50.5977 790.848 52.2617C794.106 53.9258 795.735 57.0664 795.735 61.6836V79.2617C795.735 80.4805 795.758 81.957 795.805 83.6914C795.876 85.0039 796.075 85.8945 796.403 86.3633C796.731 86.832 797.223 87.2188 797.879 87.5234V89H786.981C786.676 88.2266 786.465 87.5 786.348 86.8203C786.231 86.1406 786.137 85.3672 786.067 84.5C784.684 86 783.09 87.2773 781.286 88.332C779.129 89.5742 776.692 90.1953 773.973 90.1953C770.504 90.1953 767.633 89.2109 765.36 87.2422C763.11 85.25 761.985 82.4375 761.985 78.8047C761.985 74.0938 763.801 70.6836 767.434 68.5742C769.426 67.4258 772.356 66.6055 776.223 66.1133L779.633 65.6914C781.485 65.457 782.809 65.1641 783.606 64.8125C785.036 64.2031 785.751 63.2539 785.751 61.9648C785.751 60.3945 785.2 59.3164 784.098 58.7305C783.02 58.1211 781.426 57.8164 779.317 57.8164C776.95 57.8164 775.274 58.4023 774.29 59.5742C773.586 60.4414 773.118 61.6133 772.883 63.0898H763.215C763.426 59.7383 764.364 56.9844 766.028 54.8281ZM773.481 81.7578C774.419 82.5312 775.567 82.918 776.926 82.918C779.083 82.918 781.063 82.2852 782.868 81.0195C784.696 79.7539 785.645 77.4453 785.715 74.0938V70.3672C785.083 70.7656 784.438 71.0938 783.782 71.3516C783.149 71.5859 782.27 71.8086 781.145 72.0195L778.895 72.4414C776.786 72.8164 775.274 73.2734 774.36 73.8125C772.813 74.7266 772.04 76.1445 772.04 78.0664C772.04 79.7773 772.52 81.0078 773.481 81.7578ZM838.1 37.25V89H828.361V83.6914C826.932 85.9648 825.303 87.6172 823.475 88.6484C821.646 89.6797 819.373 90.1953 816.654 90.1953C812.178 90.1953 808.404 88.3906 805.334 84.7812C802.287 81.1484 800.764 76.4961 800.764 70.8242C800.764 64.2852 802.264 59.1406 805.264 55.3906C808.287 51.6406 812.318 49.7656 817.357 49.7656C819.678 49.7656 821.74 50.2812 823.545 51.3125C825.35 52.3203 826.814 53.7266 827.939 55.5312V37.25H838.1ZM811.1 70.0859C811.1 73.625 811.803 76.4492 813.209 78.5586C814.592 80.6914 816.701 81.7578 819.537 81.7578C822.373 81.7578 824.529 80.7031 826.006 78.5938C827.482 76.4844 828.221 73.7539 828.221 70.4023C828.221 65.7148 827.037 62.3633 824.67 60.3477C823.217 59.1289 821.529 58.5195 819.607 58.5195C816.678 58.5195 814.521 59.6328 813.139 61.8594C811.779 64.0625 811.1 66.8047 811.1 70.0859ZM856.101 50.6797V89H845.941V50.6797H856.101ZM856.101 36.8633V46.1094H845.941V36.8633H856.101ZM882.434 58.0977C879.036 58.0977 876.704 59.5391 875.438 62.4219C874.782 63.9453 874.454 65.8906 874.454 68.2578V89H864.47V50.75H874.138V56.3398C875.427 54.3711 876.645 52.9531 877.794 52.0859C879.856 50.5391 882.47 49.7656 885.634 49.7656C889.595 49.7656 892.829 50.8086 895.337 52.8945C897.868 54.957 899.134 58.3906 899.134 63.1953V89H888.868V65.6914C888.868 63.6758 888.599 62.1289 888.059 61.0508C887.075 59.082 885.2 58.0977 882.434 58.0977ZM917.803 95.7148C918.881 96.6289 920.698 97.0859 923.252 97.0859C926.862 97.0859 929.276 95.8789 930.494 93.4648C931.291 91.918 931.69 89.3164 931.69 85.6602V83.1992C930.729 84.8398 929.698 86.0703 928.596 86.8906C926.604 88.4141 924.014 89.1758 920.826 89.1758C915.905 89.1758 911.967 87.4531 909.014 84.0078C906.084 80.5391 904.619 75.8516 904.619 69.9453C904.619 64.25 906.037 59.4688 908.873 55.6016C911.709 51.7109 915.729 49.7656 920.932 49.7656C922.854 49.7656 924.53 50.0586 925.959 50.6445C928.397 51.6523 930.366 53.5039 931.866 56.1992V50.6797H941.604V87.0312C941.604 91.9766 940.772 95.7031 939.108 98.2109C936.248 102.523 930.764 104.68 922.655 104.68C917.756 104.68 913.76 103.719 910.666 101.797C907.573 99.875 905.862 97.0039 905.534 93.1836H916.432C916.713 94.3555 917.17 95.1992 917.803 95.7148ZM916.116 75.9219C917.475 79.1562 919.912 80.7734 923.428 80.7734C925.772 80.7734 927.752 79.8945 929.369 78.1367C930.987 76.3555 931.795 73.5312 931.795 69.6641C931.795 66.0312 931.022 63.2656 929.475 61.3672C927.951 59.4688 925.901 58.5195 923.323 58.5195C919.807 58.5195 917.381 60.1719 916.045 63.4766C915.342 65.2344 914.991 67.4023 914.991 69.9805C914.991 72.207 915.366 74.1875 916.116 75.9219Z" fill="white"/>
<path d="M412.743 136.672C413.879 136.672 414.801 136.547 415.509 136.297C416.853 135.818 417.524 134.927 417.524 133.625C417.524 132.865 417.191 132.276 416.524 131.859C415.858 131.453 414.811 131.094 413.384 130.781L410.946 130.234C408.551 129.693 406.894 129.104 405.978 128.469C404.426 127.406 403.649 125.745 403.649 123.484C403.649 121.422 404.399 119.708 405.899 118.344C407.399 116.979 409.603 116.297 412.509 116.297C414.936 116.297 417.004 116.943 418.712 118.234C420.431 119.516 421.332 121.38 421.415 123.828H416.79C416.707 122.443 416.103 121.458 414.978 120.875C414.228 120.49 413.295 120.297 412.181 120.297C410.941 120.297 409.952 120.547 409.212 121.047C408.472 121.547 408.103 122.245 408.103 123.141C408.103 123.964 408.467 124.578 409.196 124.984C409.665 125.255 410.665 125.573 412.196 125.938L416.165 126.891C417.905 127.307 419.217 127.865 420.103 128.562C421.478 129.646 422.165 131.214 422.165 133.266C422.165 135.37 421.358 137.12 419.743 138.516C418.139 139.901 415.868 140.594 412.931 140.594C409.931 140.594 407.571 139.911 405.853 138.547C404.134 137.172 403.274 135.286 403.274 132.891H407.868C408.014 133.943 408.301 134.729 408.728 135.25C409.509 136.198 410.847 136.672 412.743 136.672ZM438.931 125.125C440.369 126.927 441.088 129.057 441.088 131.516C441.088 134.016 440.369 136.156 438.931 137.938C437.494 139.708 435.312 140.594 432.384 140.594C429.457 140.594 427.275 139.708 425.838 137.938C424.4 136.156 423.681 134.016 423.681 131.516C423.681 129.057 424.4 126.927 425.838 125.125C427.275 123.323 429.457 122.422 432.384 122.422C435.312 122.422 437.494 123.323 438.931 125.125ZM432.369 126.188C431.067 126.188 430.062 126.651 429.353 127.578C428.655 128.495 428.306 129.807 428.306 131.516C428.306 133.224 428.655 134.542 429.353 135.469C430.062 136.396 431.067 136.859 432.369 136.859C433.671 136.859 434.671 136.396 435.369 135.469C436.067 134.542 436.416 133.224 436.416 131.516C436.416 129.807 436.067 128.495 435.369 127.578C434.671 126.651 433.671 126.188 432.369 126.188ZM454.573 137.594C454.531 137.646 454.427 137.802 454.26 138.062C454.093 138.323 453.896 138.552 453.666 138.75C452.968 139.375 452.291 139.802 451.635 140.031C450.989 140.26 450.229 140.375 449.354 140.375C446.833 140.375 445.135 139.469 444.26 137.656C443.771 136.656 443.526 135.182 443.526 133.234V122.969H448.088V133.234C448.088 134.203 448.203 134.932 448.432 135.422C448.838 136.286 449.635 136.719 450.823 136.719C452.343 136.719 453.385 136.104 453.948 134.875C454.239 134.208 454.385 133.328 454.385 132.234V122.969H458.901V140H454.573V137.594ZM471.136 127.078C469.344 127.078 468.141 127.661 467.526 128.828C467.183 129.484 467.011 130.495 467.011 131.859V140H462.526V122.969H466.776V125.938C467.464 124.802 468.063 124.026 468.573 123.609C469.407 122.911 470.49 122.562 471.823 122.562C471.907 122.562 471.974 122.568 472.026 122.578C472.089 122.578 472.219 122.583 472.417 122.594V127.156C472.136 127.125 471.886 127.104 471.667 127.094C471.448 127.083 471.271 127.078 471.136 127.078ZM489.136 129.078H484.574C484.491 128.443 484.277 127.87 483.933 127.359C483.433 126.672 482.657 126.328 481.605 126.328C480.105 126.328 479.079 127.073 478.527 128.562C478.235 129.354 478.089 130.406 478.089 131.719C478.089 132.969 478.235 133.974 478.527 134.734C479.058 136.151 480.058 136.859 481.527 136.859C482.569 136.859 483.308 136.578 483.746 136.016C484.183 135.453 484.449 134.724 484.543 133.828H489.089C488.985 135.182 488.496 136.464 487.621 137.672C486.225 139.62 484.157 140.594 481.418 140.594C478.678 140.594 476.662 139.781 475.371 138.156C474.079 136.531 473.433 134.422 473.433 131.828C473.433 128.901 474.147 126.625 475.574 125C477.001 123.375 478.97 122.562 481.48 122.562C483.616 122.562 485.36 123.042 486.714 124C488.079 124.958 488.886 126.651 489.136 129.078ZM496.153 122.969V140H491.637V122.969H496.153ZM496.153 116.828V120.938H491.637V116.828H496.153ZM507.856 126.266C506.346 126.266 505.309 126.906 504.747 128.188C504.455 128.865 504.309 129.729 504.309 130.781V140H499.872V123H504.169V125.484C504.742 124.609 505.283 123.979 505.794 123.594C506.711 122.906 507.872 122.562 509.278 122.562C511.039 122.562 512.476 123.026 513.591 123.953C514.716 124.87 515.278 126.396 515.278 128.531V140H510.716V129.641C510.716 128.745 510.596 128.057 510.356 127.578C509.919 126.703 509.086 126.266 507.856 126.266ZM523.576 142.984C524.055 143.391 524.862 143.594 525.998 143.594C527.602 143.594 528.675 143.057 529.216 141.984C529.571 141.297 529.748 140.141 529.748 138.516V137.422C529.321 138.151 528.862 138.698 528.373 139.062C527.487 139.74 526.336 140.078 524.919 140.078C522.732 140.078 520.982 139.312 519.669 137.781C518.367 136.24 517.716 134.156 517.716 131.531C517.716 129 518.347 126.875 519.607 125.156C520.867 123.427 522.654 122.562 524.966 122.562C525.821 122.562 526.565 122.693 527.201 122.953C528.284 123.401 529.159 124.224 529.826 125.422V122.969H534.154V139.125C534.154 141.323 533.784 142.979 533.044 144.094C531.774 146.01 529.336 146.969 525.732 146.969C523.555 146.969 521.779 146.542 520.404 145.688C519.029 144.833 518.268 143.557 518.123 141.859H522.966C523.091 142.38 523.294 142.755 523.576 142.984ZM522.826 134.188C523.43 135.625 524.513 136.344 526.076 136.344C527.117 136.344 527.998 135.953 528.716 135.172C529.435 134.38 529.794 133.125 529.794 131.406C529.794 129.792 529.451 128.562 528.763 127.719C528.086 126.875 527.175 126.453 526.029 126.453C524.466 126.453 523.388 127.188 522.794 128.656C522.482 129.438 522.326 130.401 522.326 131.547C522.326 132.536 522.492 133.417 522.826 134.188ZM545.53 140V116.75H549.639V140H545.53ZM579.641 116.969V121.047H572.75V140H567.906V121.047H560.984V116.969H579.641ZM588.282 127.078C586.49 127.078 585.287 127.661 584.673 128.828C584.329 129.484 584.157 130.495 584.157 131.859V140H579.673V122.969H583.923V125.938C584.61 124.802 585.209 124.026 585.719 123.609C586.553 122.911 587.636 122.562 588.969 122.562C589.053 122.562 589.121 122.568 589.173 122.578C589.235 122.578 589.365 122.583 589.563 122.594V127.156C589.282 127.125 589.032 127.104 588.813 127.094C588.594 127.083 588.417 127.078 588.282 127.078ZM592.189 124.812C593.366 123.312 595.387 122.562 598.251 122.562C600.116 122.562 601.772 122.932 603.22 123.672C604.668 124.411 605.392 125.807 605.392 127.859V135.672C605.392 136.214 605.402 136.87 605.423 137.641C605.454 138.224 605.543 138.62 605.689 138.828C605.835 139.036 606.053 139.208 606.345 139.344V140H601.501C601.366 139.656 601.272 139.333 601.22 139.031C601.168 138.729 601.126 138.385 601.095 138C600.481 138.667 599.772 139.234 598.97 139.703C598.012 140.255 596.928 140.531 595.72 140.531C594.178 140.531 592.902 140.094 591.892 139.219C590.892 138.333 590.392 137.083 590.392 135.469C590.392 133.375 591.199 131.859 592.814 130.922C593.699 130.411 595.001 130.047 596.72 129.828L598.236 129.641C599.059 129.536 599.647 129.406 600.001 129.25C600.637 128.979 600.954 128.557 600.954 127.984C600.954 127.286 600.71 126.807 600.22 126.547C599.741 126.276 599.033 126.141 598.095 126.141C597.043 126.141 596.298 126.401 595.861 126.922C595.548 127.307 595.34 127.828 595.236 128.484H590.939C591.033 126.995 591.449 125.771 592.189 124.812ZM595.501 136.781C595.918 137.125 596.428 137.297 597.033 137.297C597.991 137.297 598.871 137.016 599.673 136.453C600.486 135.891 600.908 134.865 600.939 133.375V131.719C600.658 131.896 600.371 132.042 600.079 132.156C599.798 132.26 599.408 132.359 598.908 132.453L597.908 132.641C596.97 132.807 596.298 133.01 595.892 133.25C595.204 133.656 594.861 134.286 594.861 135.141C594.861 135.901 595.074 136.448 595.501 136.781ZM624.221 117V140H619.893V137.641C619.257 138.651 618.533 139.385 617.721 139.844C616.908 140.302 615.898 140.531 614.689 140.531C612.7 140.531 611.023 139.729 609.658 138.125C608.304 136.51 607.627 134.443 607.627 131.922C607.627 129.016 608.294 126.729 609.627 125.062C610.971 123.396 612.762 122.562 615.002 122.562C616.033 122.562 616.95 122.792 617.752 123.25C618.554 123.698 619.205 124.323 619.705 125.125V117H624.221ZM612.221 131.594C612.221 133.167 612.533 134.422 613.158 135.359C613.773 136.307 614.71 136.781 615.971 136.781C617.231 136.781 618.189 136.312 618.846 135.375C619.502 134.438 619.83 133.224 619.83 131.734C619.83 129.651 619.304 128.161 618.252 127.266C617.606 126.724 616.856 126.453 616.002 126.453C614.7 126.453 613.742 126.948 613.127 127.938C612.523 128.917 612.221 130.135 612.221 131.594ZM632.221 122.969V140H627.706V122.969H632.221ZM632.221 116.828V120.938H627.706V116.828H632.221ZM643.925 126.266C642.415 126.266 641.378 126.906 640.816 128.188C640.524 128.865 640.378 129.729 640.378 130.781V140H635.941V123H640.238V125.484C640.81 124.609 641.352 123.979 641.863 123.594C642.779 122.906 643.941 122.562 645.347 122.562C647.107 122.562 648.545 123.026 649.659 123.953C650.784 124.87 651.347 126.396 651.347 128.531V140H646.784V129.641C646.784 128.745 646.665 128.057 646.425 127.578C645.988 126.703 645.154 126.266 643.925 126.266ZM659.644 142.984C660.124 143.391 660.931 143.594 662.066 143.594C663.671 143.594 664.743 143.057 665.285 141.984C665.639 141.297 665.816 140.141 665.816 138.516V137.422C665.389 138.151 664.931 138.698 664.441 139.062C663.556 139.74 662.405 140.078 660.988 140.078C658.801 140.078 657.051 139.312 655.738 137.781C654.436 136.24 653.785 134.156 653.785 131.531C653.785 129 654.415 126.875 655.676 125.156C656.936 123.427 658.723 122.562 661.035 122.562C661.889 122.562 662.634 122.693 663.269 122.953C664.353 123.401 665.228 124.224 665.894 125.422V122.969H670.223V139.125C670.223 141.323 669.853 142.979 669.113 144.094C667.842 146.01 665.405 146.969 661.801 146.969C659.624 146.969 657.848 146.542 656.473 145.688C655.098 144.833 654.337 143.557 654.191 141.859H659.035C659.16 142.38 659.363 142.755 659.644 142.984ZM658.894 134.188C659.499 135.625 660.582 136.344 662.144 136.344C663.186 136.344 664.066 135.953 664.785 135.172C665.504 134.38 665.863 133.125 665.863 131.406C665.863 129.792 665.519 128.562 664.832 127.719C664.155 126.875 663.243 126.453 662.098 126.453C660.535 126.453 659.457 127.188 658.863 128.656C658.551 129.438 658.394 130.401 658.394 131.547C658.394 132.536 658.561 133.417 658.894 134.188ZM681.599 140V116.75H685.708V140H681.599ZM707.334 136.672C708.47 136.672 709.392 136.547 710.1 136.297C711.444 135.818 712.116 134.927 712.116 133.625C712.116 132.865 711.782 132.276 711.116 131.859C710.449 131.453 709.402 131.094 707.975 130.781L705.538 130.234C703.142 129.693 701.486 129.104 700.569 128.469C699.017 127.406 698.241 125.745 698.241 123.484C698.241 121.422 698.991 119.708 700.491 118.344C701.991 116.979 704.194 116.297 707.1 116.297C709.527 116.297 711.595 116.943 713.303 118.234C715.022 119.516 715.923 121.38 716.006 123.828H711.381C711.298 122.443 710.694 121.458 709.569 120.875C708.819 120.49 707.887 120.297 706.772 120.297C705.532 120.297 704.543 120.547 703.803 121.047C703.064 121.547 702.694 122.245 702.694 123.141C702.694 123.964 703.058 124.578 703.788 124.984C704.256 125.255 705.256 125.573 706.788 125.938L710.756 126.891C712.496 127.307 713.808 127.865 714.694 128.562C716.069 129.646 716.756 131.214 716.756 133.266C716.756 135.37 715.949 137.12 714.334 138.516C712.73 139.901 710.459 140.594 707.522 140.594C704.522 140.594 702.163 139.911 700.444 138.547C698.725 137.172 697.866 135.286 697.866 132.891H702.459C702.605 133.943 702.892 134.729 703.319 135.25C704.1 136.198 705.439 136.672 707.334 136.672ZM734.71 130V140H730.163V129.641C730.163 128.724 730.007 127.984 729.694 127.422C729.288 126.63 728.517 126.234 727.382 126.234C726.205 126.234 725.309 126.63 724.694 127.422C724.09 128.203 723.788 129.323 723.788 130.781V140H719.351V117.047H723.788V125.188C724.434 124.198 725.179 123.51 726.023 123.125C726.877 122.729 727.773 122.531 728.71 122.531C729.762 122.531 730.715 122.714 731.569 123.078C732.434 123.443 733.142 124 733.694 124.75C734.163 125.385 734.45 126.042 734.554 126.719C734.658 127.385 734.71 128.479 734.71 130ZM742.82 122.969V140H738.304V122.969H742.82ZM742.82 116.828V120.938H738.304V116.828H742.82ZM760.774 124.797C762.149 126.266 762.836 128.422 762.836 131.266C762.836 134.266 762.159 136.552 760.805 138.125C759.461 139.698 757.727 140.484 755.602 140.484C754.248 140.484 753.123 140.146 752.227 139.469C751.737 139.094 751.258 138.547 750.789 137.828V146.703H746.383V122.969H750.649V125.484C751.128 124.745 751.638 124.161 752.18 123.734C753.17 122.974 754.347 122.594 755.711 122.594C757.701 122.594 759.388 123.328 760.774 124.797ZM758.243 131.484C758.243 130.172 757.941 129.01 757.336 128C756.743 126.99 755.774 126.484 754.43 126.484C752.816 126.484 751.706 127.25 751.102 128.781C750.789 129.594 750.633 130.625 750.633 131.875C750.633 133.854 751.159 135.245 752.211 136.047C752.836 136.516 753.576 136.75 754.43 136.75C755.67 136.75 756.612 136.271 757.258 135.312C757.914 134.354 758.243 133.078 758.243 131.484ZM779.696 124.797C781.071 126.266 781.759 128.422 781.759 131.266C781.759 134.266 781.082 136.552 779.728 138.125C778.384 139.698 776.649 140.484 774.524 140.484C773.17 140.484 772.045 140.146 771.149 139.469C770.66 139.094 770.181 138.547 769.712 137.828V146.703H765.306V122.969H769.571V125.484C770.051 124.745 770.561 124.161 771.103 123.734C772.092 122.974 773.269 122.594 774.634 122.594C776.623 122.594 778.311 123.328 779.696 124.797ZM777.165 131.484C777.165 130.172 776.863 129.01 776.259 128C775.665 126.99 774.696 126.484 773.353 126.484C771.738 126.484 770.629 127.25 770.024 128.781C769.712 129.594 769.556 130.625 769.556 131.875C769.556 133.854 770.082 135.245 771.134 136.047C771.759 136.516 772.498 136.75 773.353 136.75C774.592 136.75 775.535 136.271 776.181 135.312C776.837 134.354 777.165 133.078 777.165 131.484ZM788.931 122.969V140H784.416V122.969H788.931ZM788.931 116.828V120.938H784.416V116.828H788.931ZM800.635 126.266C799.125 126.266 798.088 126.906 797.526 128.188C797.234 128.865 797.088 129.729 797.088 130.781V140H792.651V123H796.948V125.484C797.52 124.609 798.062 123.979 798.573 123.594C799.489 122.906 800.651 122.562 802.057 122.562C803.817 122.562 805.255 123.026 806.369 123.953C807.494 124.87 808.057 126.396 808.057 128.531V140H803.494V129.641C803.494 128.745 803.375 128.057 803.135 127.578C802.698 126.703 801.864 126.266 800.635 126.266ZM816.354 142.984C816.834 143.391 817.641 143.594 818.776 143.594C820.38 143.594 821.453 143.057 821.995 141.984C822.349 141.297 822.526 140.141 822.526 138.516V137.422C822.099 138.151 821.641 138.698 821.151 139.062C820.266 139.74 819.115 140.078 817.698 140.078C815.511 140.078 813.761 139.312 812.448 137.781C811.146 136.24 810.495 134.156 810.495 131.531C810.495 129 811.125 126.875 812.386 125.156C813.646 123.427 815.433 122.562 817.745 122.562C818.599 122.562 819.344 122.693 819.979 122.953C821.063 123.401 821.938 124.224 822.604 125.422V122.969H826.933V139.125C826.933 141.323 826.563 142.979 825.823 144.094C824.552 146.01 822.115 146.969 818.511 146.969C816.334 146.969 814.558 146.542 813.183 145.688C811.808 144.833 811.047 143.557 810.901 141.859H815.745C815.87 142.38 816.073 142.755 816.354 142.984ZM815.604 134.188C816.209 135.625 817.292 136.344 818.854 136.344C819.896 136.344 820.776 135.953 821.495 135.172C822.214 134.38 822.573 133.125 822.573 131.406C822.573 129.792 822.229 128.562 821.542 127.719C820.865 126.875 819.953 126.453 818.808 126.453C817.245 126.453 816.167 127.188 815.573 128.656C815.261 129.438 815.104 130.401 815.104 131.547C815.104 132.536 815.271 133.417 815.604 134.188Z" fill="white"/>
</svg>
