<svg width="436" height="175" viewBox="0 0 436 175" fill="none" xmlns="http://www.w3.org/2000/svg">
<path d="M34.4731 0.93718C29.5231 1.73718 25.4231 3.03718 21.4731 4.98718C10.8231 10.2372 4.72314 19.2872 1.87314 34.0872C1.02314 38.3372 0.973145 42.6872 0.973145 85.9872C0.973145 135.787 1.02314 137.037 3.32314 146.237C6.97314 161.037 14.6231 170.037 26.7231 173.737C30.8231 174.987 41.4731 175.287 46.2231 174.287C53.6231 172.737 60.9731 167.837 64.8231 161.937C65.6731 160.587 66.5231 159.487 66.7231 159.487C66.8731 159.487 68.2731 162.587 69.8231 166.337L72.6231 173.237L79.4231 173.387L86.2231 173.537V123.737V73.9872H65.2231H44.2231V88.4872V102.937L48.8731 103.087L53.4731 103.237V118.237C53.4731 131.287 53.3231 133.687 52.5231 136.637C51.4231 140.637 49.7231 142.687 46.7731 143.487C41.5231 144.887 37.5731 142.587 35.8731 137.187C35.0231 134.437 34.9731 131.387 34.9731 87.4872C34.9731 43.4372 35.0231 40.5872 35.8731 38.0872C37.1731 34.4872 39.0731 32.6872 42.4231 31.9872C45.7231 31.3372 48.5231 31.9372 50.1231 33.6372C52.4231 36.0372 52.8731 38.5872 53.1231 49.5872L53.3231 59.9872H70.1231H86.8731L86.5731 51.5872C85.3731 20.8872 76.7731 6.38718 56.9731 1.73718C53.0231 0.78718 38.5731 0.28718 34.4731 0.93718Z" fill="white"/>
<path d="M139.223 0.937082C124.173 3.18708 113.723 11.0871 108.923 23.9871C105.423 33.2871 105.473 32.2371 105.473 86.4871C105.473 139.387 105.423 138.537 108.273 147.837C111.873 159.687 120.473 168.887 131.223 172.487C138.323 174.887 148.823 175.637 157.523 174.437C171.923 172.437 183.123 163.087 187.823 149.187C190.973 139.787 190.873 141.287 191.073 89.4871C191.223 56.4371 191.123 40.7371 190.723 37.2871C188.523 18.1871 179.523 6.68708 163.173 2.23708C159.223 1.13708 157.173 0.887082 150.223 0.737082C145.673 0.637082 140.723 0.737082 139.223 0.937082ZM152.723 32.9371C153.423 33.3871 154.523 34.8871 155.223 36.2871L156.473 38.7371L156.623 85.4371C156.723 115.787 156.573 133.087 156.223 134.887C155.573 138.537 154.023 141.687 152.323 142.787C150.423 144.037 146.423 143.987 144.223 142.687C142.923 141.937 142.123 140.887 141.223 138.737L139.973 135.737V87.9871C139.973 36.4371 139.923 37.4371 142.623 34.4371C145.173 31.5871 149.823 30.8871 152.723 32.9371Z" fill="white"/>
<path d="M384.473 0.787119C379.023 1.63712 374.873 2.88712 370.423 4.98712C360.723 9.63712 354.873 17.4371 351.673 29.8871C349.773 37.2371 349.673 41.6871 349.823 89.7371C350.023 134.987 350.073 136.387 351.073 141.587C352.323 147.687 354.123 153.337 356.023 157.137C360.873 166.637 368.773 172.637 378.923 174.437C383.173 175.187 391.373 175.087 395.473 174.237C402.523 172.737 409.373 168.187 413.473 162.287C414.523 160.737 415.523 159.487 415.673 159.487C415.823 159.487 417.223 162.587 418.723 166.387L421.523 173.237L428.373 173.387L435.223 173.537V123.737V73.9871H414.223H393.223V88.4871V102.987H397.723H402.223V117.987C402.223 133.487 401.923 136.787 400.123 140.037C397.523 144.737 390.073 145.237 386.623 140.987C383.773 137.437 383.723 136.137 383.723 86.8871C383.723 47.9371 383.823 41.9871 384.523 39.3371C385.973 33.7871 388.223 31.8871 393.523 31.8371C395.623 31.7871 397.023 32.0871 397.923 32.6371C401.023 34.6871 402.223 40.1871 402.223 52.1871V59.9871H418.973H435.723V55.5871C435.723 50.3371 434.523 38.7371 433.423 33.2371C430.423 18.0871 424.573 9.43712 413.973 4.48712C408.073 1.73712 403.823 0.937119 394.223 0.737119C389.673 0.637119 385.323 0.687119 384.473 0.787119Z" fill="white"/>
<path d="M211.723 87.7373V173.487H228.973H246.223L246.323 134.587L246.473 95.7373L262.873 95.5873L279.223 95.4873V79.2373V62.9873L262.873 62.8873L246.473 62.7373V48.9873V35.2373L263.873 35.0873L281.223 34.9873V18.4873V1.9873H246.473H211.723V87.7373Z" fill="white"/>
<path d="M297.223 87.7373V173.487H313.973H330.723V87.7373V1.9873H313.973H297.223V87.7373Z" fill="white"/>
</svg>
