<svg width="920" height="196" viewBox="0 0 920 196" fill="none" xmlns="http://www.w3.org/2000/svg">
<path d="M110.015 1.21081C105.363 2.59385 104.985 2.97104 91.5322 17.0529C83.4855 25.2254 80.4679 29.2488 80.4679 31.6377C80.4679 35.4097 84.9942 39.5588 96.31 46.0968L104.357 50.6231V68.7284V86.8337L100.333 84.3191C98.0703 82.936 90.7779 78.7869 84.2398 75.1407C77.7018 71.4945 69.5293 66.9682 66.0088 64.9565C62.6141 63.0705 58.0878 61.436 56.2018 61.436C47.0234 61.436 39.9825 70.3629 42.6228 79.0384C44.3831 85.0734 47.0234 87.2109 64.1229 96.6407C72.0439 100.916 84.3656 107.957 91.5322 111.98L104.357 119.524V137.755V155.86L94.6755 150.579C89.2691 147.688 82.7311 143.916 80.2164 142.281C77.5761 140.647 72.4211 137.755 68.9006 135.743C65.2544 133.731 51.8012 126.062 38.9766 118.769C26.1521 111.477 14.7105 105.442 13.579 105.442C7.04094 105.442 0 113.866 0 121.661C0 129.708 3.6462 134.109 15.7164 141.15C62.2369 168.433 108.757 194.334 112.404 195.214C114.29 195.717 117.936 195.465 120.45 194.585C128.246 192.071 221.664 138.132 225.813 133.857C230.968 128.451 232.1 122.038 229.208 115.626C227.825 112.609 210.097 92.6173 184.825 65.5851C124.097 0.707882 126.36 2.97104 120.828 1.33654C115.421 -0.423698 115.17 -0.423698 110.015 1.21081Z" fill="white"/>
<path d="M318.474 144.047C312.849 144.047 308.328 142.922 304.912 140.672C302.87 139.339 300.662 137.006 298.287 133.672V142.235H280.849V50.2349H298.599V82.9849C300.849 79.8182 303.328 77.4015 306.037 75.7349C309.245 73.6515 313.328 72.6099 318.287 72.6099C327.245 72.6099 334.245 75.839 339.287 82.2974C344.37 88.7557 346.912 97.089 346.912 107.297C346.912 117.881 344.412 126.652 339.412 133.61C334.412 140.568 327.432 144.047 318.474 144.047ZM328.224 109.172C328.224 104.339 327.599 100.339 326.349 97.1724C323.974 91.1724 319.599 88.1724 313.224 88.1724C306.766 88.1724 302.328 91.1099 299.912 96.9849C298.662 100.11 298.037 104.152 298.037 109.11C298.037 114.943 299.328 119.777 301.912 123.61C304.495 127.443 308.432 129.36 313.724 129.36C318.307 129.36 321.87 127.506 324.412 123.797C326.953 120.089 328.224 115.214 328.224 109.172ZM400.852 132.61C400.685 132.818 400.268 133.443 399.602 134.485C398.935 135.527 398.143 136.443 397.227 137.235C394.435 139.735 391.727 141.443 389.102 142.36C386.518 143.277 383.477 143.735 379.977 143.735C369.893 143.735 363.102 140.11 359.602 132.86C357.643 128.86 356.664 122.964 356.664 115.172V74.1099H374.914V115.172C374.914 119.047 375.372 121.964 376.289 123.922C377.914 127.381 381.102 129.11 385.852 129.11C391.935 129.11 396.102 126.652 398.352 121.735C399.518 119.068 400.102 115.547 400.102 111.172V74.1099H418.164V142.235H400.852V132.61ZM451.167 74.1099V142.235H433.104V74.1099H451.167ZM451.167 49.5474V65.9849H433.104V49.5474H451.167ZM466.294 50.1099H484.107V142.235H466.294V50.1099ZM560.984 50.2349V142.235H543.672V132.797C541.13 136.839 538.234 139.777 534.984 141.61C531.734 143.443 527.692 144.36 522.859 144.36C514.901 144.36 508.192 141.152 502.734 134.735C497.317 128.277 494.609 120.006 494.609 109.922C494.609 98.2974 497.276 89.1515 502.609 82.4849C507.984 75.8182 515.151 72.4849 524.109 72.4849C528.234 72.4849 531.901 73.4015 535.109 75.2349C538.317 77.0265 540.922 79.5265 542.922 82.7349V50.2349H560.984ZM512.984 108.61C512.984 114.902 514.234 119.922 516.734 123.672C519.192 127.464 522.942 129.36 527.984 129.36C533.026 129.36 536.859 127.485 539.484 123.735C542.109 119.985 543.422 115.131 543.422 109.172C543.422 100.839 541.317 94.8807 537.109 91.2974C534.526 89.1307 531.526 88.0474 528.109 88.0474C522.901 88.0474 519.067 90.0265 516.609 93.9849C514.192 97.9015 512.984 102.777 512.984 108.61ZM621.612 77.2349C626.945 80.6515 630.007 86.5265 630.799 94.8599H612.987C612.737 92.5682 612.091 90.7557 611.049 89.4224C609.091 87.0057 605.757 85.7974 601.049 85.7974C597.174 85.7974 594.403 86.4015 592.737 87.6099C591.112 88.8182 590.299 90.2349 590.299 91.8599C590.299 93.9015 591.174 95.3807 592.924 96.2974C594.674 97.2557 600.862 98.9015 611.487 101.235C618.57 102.902 623.882 105.422 627.424 108.797C630.924 112.214 632.674 116.485 632.674 121.61C632.674 128.36 630.153 133.881 625.112 138.172C620.112 142.422 612.362 144.547 601.862 144.547C591.153 144.547 583.237 142.297 578.112 137.797C573.028 133.256 570.487 127.485 570.487 120.485H588.549C588.924 123.652 589.737 125.902 590.987 127.235C593.195 129.61 597.278 130.797 603.237 130.797C606.737 130.797 609.507 130.277 611.549 129.235C613.632 128.193 614.674 126.631 614.674 124.547C614.674 122.547 613.841 121.027 612.174 119.985C610.507 118.943 604.32 117.152 593.612 114.61C585.903 112.693 580.466 110.297 577.299 107.422C574.132 104.589 572.549 100.506 572.549 95.1724C572.549 88.8807 575.007 83.4849 579.924 78.9849C584.882 74.4432 591.841 72.1724 600.799 72.1724C609.299 72.1724 616.237 73.8599 621.612 77.2349ZM700.427 81.4224C705.927 87.2974 708.677 95.9224 708.677 107.297C708.677 119.297 705.968 128.443 700.552 134.735C695.177 141.027 688.239 144.172 679.739 144.172C674.322 144.172 669.822 142.818 666.239 140.11C664.281 138.61 662.364 136.422 660.489 133.547V169.047H642.864V74.1099H659.927V84.1724C661.843 81.214 663.885 78.8807 666.052 77.1724C670.01 74.1307 674.718 72.6099 680.177 72.6099C688.135 72.6099 694.885 75.5474 700.427 81.4224ZM690.302 108.172C690.302 102.922 689.093 98.2765 686.677 94.2349C684.302 90.1932 680.427 88.1724 675.052 88.1724C668.593 88.1724 664.156 91.2349 661.739 97.3599C660.489 100.61 659.864 104.735 659.864 109.735C659.864 117.652 661.968 123.214 666.177 126.422C668.677 128.297 671.635 129.235 675.052 129.235C680.01 129.235 683.781 127.318 686.364 123.485C688.989 119.652 690.302 114.547 690.302 108.172ZM721.617 81.4849C726.325 75.4849 734.408 72.4849 745.867 72.4849C753.325 72.4849 759.95 73.964 765.742 76.9224C771.533 79.8807 774.429 85.464 774.429 93.6724V124.922C774.429 127.089 774.471 129.714 774.554 132.797C774.679 135.131 775.033 136.714 775.617 137.547C776.2 138.381 777.075 139.068 778.242 139.61V142.235H758.867C758.325 140.86 757.95 139.568 757.742 138.36C757.533 137.152 757.367 135.777 757.242 134.235C754.783 136.902 751.95 139.172 748.742 141.047C744.908 143.256 740.575 144.36 735.742 144.36C729.575 144.36 724.471 142.61 720.429 139.11C716.429 135.568 714.429 130.568 714.429 124.11C714.429 115.735 717.658 109.672 724.117 105.922C727.658 103.881 732.867 102.422 739.742 101.547L745.804 100.797C749.096 100.381 751.45 99.8599 752.867 99.2349C755.408 98.1515 756.679 96.464 756.679 94.1724C756.679 91.3807 755.7 89.464 753.742 88.4224C751.825 87.339 748.992 86.7974 745.242 86.7974C741.033 86.7974 738.054 87.839 736.304 89.9224C735.054 91.464 734.221 93.5474 733.804 96.1724H716.617C716.992 90.214 718.658 85.3182 721.617 81.4849ZM734.867 129.36C736.533 130.735 738.575 131.422 740.992 131.422C744.825 131.422 748.346 130.297 751.554 128.047C754.804 125.797 756.492 121.693 756.617 115.735V109.11C755.492 109.818 754.346 110.402 753.179 110.86C752.054 111.277 750.492 111.672 748.492 112.047L744.492 112.797C740.742 113.464 738.054 114.277 736.429 115.235C733.679 116.86 732.304 119.381 732.304 122.797C732.304 125.839 733.158 128.027 734.867 129.36ZM846.682 98.5474H828.432C828.098 96.0057 827.244 93.714 825.869 91.6724C823.869 88.9224 820.765 87.5474 816.557 87.5474C810.557 87.5474 806.452 90.5265 804.244 96.4849C803.077 99.6515 802.494 103.86 802.494 109.11C802.494 114.11 803.077 118.131 804.244 121.172C806.369 126.839 810.369 129.672 816.244 129.672C820.411 129.672 823.369 128.547 825.119 126.297C826.869 124.047 827.932 121.131 828.307 117.547H846.494C846.077 122.964 844.119 128.089 840.619 132.922C835.036 140.714 826.765 144.61 815.807 144.61C804.848 144.61 796.786 141.36 791.619 134.86C786.452 128.36 783.869 119.922 783.869 109.547C783.869 97.839 786.723 88.7349 792.432 82.2349C798.14 75.7349 806.015 72.4849 816.057 72.4849C824.598 72.4849 831.577 74.4015 836.994 78.2349C842.452 82.0682 845.682 88.839 846.682 98.5474ZM914.747 122.235C914.288 126.277 912.184 130.381 908.434 134.547C902.601 141.172 894.434 144.485 883.934 144.485C875.267 144.485 867.622 141.693 860.997 136.11C854.372 130.527 851.059 121.443 851.059 108.86C851.059 97.0682 854.038 88.0265 859.997 81.7349C865.997 75.4432 873.767 72.2974 883.309 72.2974C888.976 72.2974 894.08 73.3599 898.622 75.4849C903.163 77.6099 906.913 80.964 909.872 85.5474C912.538 89.589 914.267 94.2765 915.059 99.6099C915.517 102.735 915.705 107.235 915.622 113.11H868.997C869.247 119.943 871.392 124.735 875.434 127.485C877.892 129.193 880.851 130.047 884.309 130.047C887.976 130.047 890.955 129.006 893.247 126.922C894.497 125.797 895.601 124.235 896.559 122.235H914.747ZM897.122 101.36C896.83 96.6515 895.392 93.089 892.809 90.6724C890.267 88.214 887.101 86.9849 883.309 86.9849C879.184 86.9849 875.976 88.2765 873.684 90.8599C871.434 93.4432 870.017 96.9432 869.434 101.36H897.122Z" fill="white"/>
</svg>
