<svg width="766" height="284" viewBox="0 0 766 284" fill="none" xmlns="http://www.w3.org/2000/svg">
<path d="M222.524 2.20002C212.324 7.50002 209.024 15.4 211.124 29.3C212.624 39.3 210.724 48.7 205.124 58.9C194.224 78.8 170.924 118 166.924 123.2C161.524 130.1 154.724 134.9 147.024 137.2C140.224 139.3 121.824 139.4 119.424 137.4C114.324 133.2 126.924 111.7 138.424 105.1C144.024 101.8 150.824 99.7 159.524 98.4C164.824 97.6 167.424 96.7 168.924 95.1C172.124 91.7 184.924 69.1 184.124 68.3C183.724 67.8 179.624 66.6 175.024 65.4C149.824 59 117.824 70.3 100.124 91.7C91.3237 102.3 85.4237 116.3 81.5237 135.7C81.0237 138.2 80.6237 138.4 73.4237 139C59.9237 140.3 46.8237 136.7 37.6237 129.1C29.7237 122.7 23.7237 121 15.5237 122.7C11.8237 123.5 9.52373 124.8 6.42373 127.9C-5.57627 139.8 0.623729 160.7 16.8237 163.1C23.6237 164.1 29.2237 162.2 37.7237 156C51.7237 145.8 50.1237 146.1 99.0237 146C140.924 146 141.624 146 147.924 148.3C161.924 153.3 171.024 163 176.524 178.5C177.824 182.2 177.824 182.2 174.524 183.8C169.724 186.1 160.424 186.9 153.524 185.6C141.524 183.4 132.124 176.9 122.024 163.6C119.024 159.7 114.724 158.6 102.224 158.5C91.7237 158.5 84.8237 160.1 85.4237 162.4C85.7237 163.3 86.4237 166 87.0237 168.5C88.8237 175.4 94.7237 186.3 100.624 193.6C107.124 201.7 115.924 208.6 126.524 213.6C139.324 219.7 145.424 221 161.524 220.9C173.624 220.8 176.724 220.4 184.524 218.1C189.524 216.6 194.424 215.2 195.624 214.9C197.324 214.4 198.424 215.6 201.924 220.9C210.824 234.5 211.924 239.7 210.924 262.1C210.524 269.7 210.724 270.5 213.524 275C217.624 281.6 222.424 284 231.624 284C237.624 284 239.324 283.6 242.824 281.2C253.124 274.4 254.824 258.3 246.024 249.5C243.924 247.4 239.524 244.7 235.524 243.1C222.324 237.8 218.124 233.8 207.924 216.7C193.724 193 176.424 162.1 174.624 157.5C168.924 142.2 172.024 125.7 183.124 113.1L187.324 108.4L191.724 112.7C205.124 125.9 208.224 141.2 201.124 160.3C199.424 164.9 198.024 169.7 198.024 171.1C198.024 174 201.324 180.8 208.324 192.2C214.124 201.8 214.024 201.7 221.924 192.8C228.224 185.6 234.224 174.3 237.224 163.9C240.524 152.3 240.524 131.2 237.224 120.5C232.624 105.9 225.724 95.1 213.324 82.9L204.924 74.7L207.624 69.3C215.424 53.8 221.824 47.9 238.124 40.7C250.924 35 255.424 23.2 249.224 11.4C247.024 7.10002 245.424 5.50002 241.124 3.30002C234.924 0.100017 227.424 -0.399983 222.524 2.20002Z" fill="white"/>
<path d="M99.3235 34C93.6235 36.4 90.8235 43.4 93.0235 49.9C94.7235 55.1 98.2235 57.5 104.224 57.5C113.024 57.5 117.624 53.2 117.424 45.1C117.324 39.9 114.924 36.2 110.524 34.1C106.524 32.2 103.524 32.1 99.3235 34Z" fill="white"/>
<path d="M481.124 74.3002C472.224 79.1002 471.724 93.3002 480.224 98.4002C487.724 103 497.724 101.9 502.924 96.0002C505.624 92.9002 506.024 91.7002 506.024 86.6002C506.024 80.1002 504.024 76.6002 499.024 74.0002C494.924 71.9002 485.324 72.1002 481.124 74.3002Z" fill="white"/>
<path d="M638.024 140V200.5H651.024H664.024V140V79.5H651.024H638.024V140Z" fill="white"/>
<path d="M348.024 143.5V200.5H361.524H375.024V177.5V154.5H400.524H426.024V177.5V200.5H439.524H453.024V143.5V86.5H439.524H426.024V109V131.5H400.524H375.024V109V86.5H361.524H348.024V143.5Z" fill="white"/>
<path d="M715.024 111.6C703.624 112.6 687.724 117.9 685.524 121.5C684.924 122.5 691.924 137.5 694.024 139.8C694.424 140.3 696.524 139.5 698.624 138.2C707.824 132.2 725.624 130.6 731.724 135.1C735.724 138.1 739.024 143.3 739.024 146.6V149.5H723.324C706.024 149.5 699.924 150.6 692.524 155C685.424 159.1 682.624 164.2 682.124 173.7C681.724 183.7 683.524 188.9 689.424 194.3C691.724 196.5 696.324 199.2 699.624 200.5C704.724 202.4 707.024 202.6 716.524 202.3C728.324 201.9 733.424 200.2 738.624 195L741.024 192.6V196.5V200.5H753.024H765.024V170.7C765.024 138 764.624 135 759.124 126.3C751.824 114.8 736.424 109.7 715.024 111.6ZM739.024 169.1C739.024 178.4 731.824 184.5 720.924 184.5C709.924 184.5 703.824 176.6 709.224 169.2C711.524 166.1 717.924 164.6 728.824 164.5H739.024V169.1Z" fill="white"/>
<path d="M566.024 112.4C561.624 113.8 556.624 116.6 553.824 119.3L551.024 121.9V117.7V113.5H538.524H526.024V173V232.5H539.024H552.024V212.9V193.4L555.424 196C561.524 200.7 568.024 202.5 578.524 202.5C594.124 202.5 606.124 196.8 614.124 185.6C620.324 177 622.324 168.8 621.824 154.6C621.424 143.7 621.224 142.4 617.924 135.4C613.524 126.3 606.924 119.5 598.024 115.2C592.024 112.3 590.624 112 580.024 111.8C573.724 111.7 567.424 111.9 566.024 112.4ZM584.024 135.3C598.124 142.6 599.724 167 586.724 176.9C575.024 185.8 557.824 179.9 553.624 165.6C552.724 162.6 552.024 158.7 552.024 157C552.024 150.5 555.024 143.2 559.524 138.9C566.224 132.4 575.724 131.1 584.024 135.3Z" fill="white"/>
<path d="M477.024 157V200.5H490.024H503.024V157V113.5H490.024H477.024V157Z" fill="white"/>
<path d="M267.124 131.9C263.824 133.7 262.124 137.2 262.024 142.3C262.024 150.3 266.824 155.5 274.324 155.5C286.024 155.5 291.424 138.4 281.724 132.5C278.024 130.2 270.724 129.9 267.124 131.9Z" fill="white"/>
<path d="M109.224 233.4C105.424 235.9 104.024 238.9 104.024 245C104.024 251.4 107.824 255.5 114.424 256.2C123.524 257.3 129.924 251 128.724 242.2C127.524 233.4 116.924 228.6 109.224 233.4Z" fill="white"/>
</svg>
